<?xml version="1.0" encoding="UTF-8" standalone="no"?>
<svg
   xmlns:dc="http://purl.org/dc/elements/1.1/"
   xmlns:cc="http://creativecommons.org/ns#"
   xmlns:rdf="http://www.w3.org/1999/02/22-rdf-syntax-ns#"
   xmlns:svg="http://www.w3.org/2000/svg"
   xmlns="http://www.w3.org/2000/svg"
   xmlns:sodipodi="http://sodipodi.sourceforge.net/DTD/sodipodi-0.dtd"
   xmlns:inkscape="http://www.inkscape.org/namespaces/inkscape"
   version="1.1"
   x="0px"
   y="0px"
   viewBox="0 0 100 100"
   enable-background="new 0 0 100 100"
   xml:space="preserve"
   id="svg2"
   inkscape:version="0.91 r13725"
   sodipodi:docname="gauge.svg"
   inkscape:export-filename="C:\dev\web\cs\apps\TO2\drone\images\gauge.png"
   inkscape:export-xdpi="21.6"
   inkscape:export-ydpi="21.6"><metadata
     id="metadata30"><rdf:RDF><cc:Work
         rdf:about=""><dc:format>image/svg+xml</dc:format><dc:type
           rdf:resource="http://purl.org/dc/dcmitype/StillImage" /><dc:title></dc:title></cc:Work></rdf:RDF></metadata><defs
     id="defs28" /><sodipodi:namedview
     pagecolor="#ffffff"
     bordercolor="#666666"
     borderopacity="1"
     objecttolerance="10"
     gridtolerance="10"
     guidetolerance="10"
     inkscape:pageopacity="0"
     inkscape:pageshadow="2"
     inkscape:window-width="727"
     inkscape:window-height="480"
     id="namedview26"
     showgrid="false"
     inkscape:zoom="2.36"
     inkscape:cx="50"
     inkscape:cy="50"
     inkscape:window-x="0"
     inkscape:window-y="0"
     inkscape:window-maximized="0"
     inkscape:current-layer="svg2" /><path
     d="M51.288,96.463c-26.44,0-47.951-21.512-47.951-47.95c0-26.439,21.511-47.952,47.951-47.952s47.951,21.512,47.951,47.952  C99.239,74.951,77.729,96.463,51.288,96.463z M51.288,8.01c-22.332,0-40.501,18.169-40.501,40.502  c0,22.332,18.169,40.501,40.501,40.501c22.333,0,40.501-18.169,40.501-40.501C91.789,26.179,73.621,8.01,51.288,8.01z"
     id="path4" /><line
     fill="none"
     stroke="#000000"
     stroke-width="2"
     stroke-linecap="round"
     stroke-miterlimit="10"
     x1="83.031"
     y1="66.326"
     x2="73.505"
     y2="60.828"
     id="line6" /><line
     fill="none"
     stroke="#000000"
     stroke-width="2"
     stroke-linecap="round"
     stroke-miterlimit="10"
     x1="87.759"
     y1="48.683"
     x2="76.759"
     y2="48.684"
     id="line8" /><line
     fill="none"
     stroke="#000000"
     stroke-width="2"
     stroke-linecap="round"
     stroke-miterlimit="10"
     x1="83.03"
     y1="31.038"
     x2="73.505"
     y2="36.539"
     id="line10" /><line
     fill="none"
     stroke="#000000"
     stroke-width="2"
     stroke-linecap="round"
     stroke-miterlimit="10"
     x1="70.114"
     y1="18.123"
     x2="64.614"
     y2="27.648"
     id="line12" /><line
     fill="none"
     stroke="#000000"
     stroke-width="2"
     stroke-linecap="round"
     stroke-miterlimit="10"
     x1="52.47"
     y1="13.395"
     x2="52.47"
     y2="24.395"
     id="line14" /><line
     fill="none"
     stroke="#000000"
     stroke-width="2"
     stroke-linecap="round"
     stroke-miterlimit="10"
     x1="34.827"
     y1="18.123"
     x2="40.327"
     y2="27.649"
     id="line16" /><line
     fill="none"
     stroke="#000000"
     stroke-width="2"
     stroke-linecap="round"
     stroke-miterlimit="10"
     x1="21.91"
     y1="31.039"
     x2="31.437"
     y2="36.539"
     id="line18" /><line
     fill="none"
     stroke="#000000"
     stroke-width="2"
     stroke-linecap="round"
     stroke-miterlimit="10"
     x1="17.183"
     y1="48.684"
     x2="28.183"
     y2="48.684"
     id="line20" /><line
     fill="none"
     stroke="#000000"
     stroke-width="2"
     stroke-linecap="round"
     stroke-miterlimit="10"
     x1="21.91"
     y1="66.327"
     x2="31.437"
     y2="60.827"
     id="line22" /><path
     d="M51.288,43.233c-0.458,0-0.895,0.077-1.319,0.187L31.668,28.082l-4.623-1.714l2.229,3.991l16.792,17.561  c-0.022,0.197-0.06,0.391-0.06,0.594c0,2.91,2.369,5.278,5.28,5.278c2.912,0,5.28-2.368,5.28-5.278  C56.568,45.601,54.2,43.233,51.288,43.233z"
     id="path24" /></svg>