<svg xmlns:inkscape="http://www.inkscape.org/namespaces/inkscape" xmlns:rdf="http://www.w3.org/1999/02/22-rdf-syntax-ns#" xmlns="http://www.w3.org/2000/svg" xmlns:xlink="http://www.w3.org/1999/xlink" xmlns:ns1="http://sozi.baierouge.fr" xmlns:cc="http://creativecommons.org/ns#" xmlns:dc="http://purl.org/dc/elements/1.1/" xmlns:sodipodi="http://sodipodi.sourceforge.net/DTD/sodipodi-0.dtd" style="" xml:space="preserve" version="1.1" viewBox="0 0 51.749733 51.749733" x="0px" y="0px" fill-rule="evenodd"><defs><style type="text/css">
    .fil1 {fill:black}
    .fil0 {fill:white}
  </style><style type="text/css">
    .fil0 {fill:#0A0B0C}
  </style><style type="text/css">
    .fil1 {fill:black}
    .fil0 {fill:white}
  </style><style type="text/css">
    .fil1 {fill:black}
    .fil0 {fill:white}
  </style><style type="text/css">
    .fil0 {fill:white}
    .fil1 {fill:black}
  </style><style type="text/css">
    .fil1 {fill:black}
    .fil0 {fill:white}
  </style><style type="text/css">
    .fil1 {fill:black}
    .fil0 {fill:white}
  </style><style type="text/css">
    .fil1 {fill:black}
    .fil0 {fill:white}
  </style><style type="text/css">
    .fil1 {fill:black}
    .fil0 {fill:white}
  </style><style type="text/css">
    .fil1 {fill:black}
    .fil0 {fill:white}
  </style><style type="text/css">
    .str0 {stroke:#1F1A17;stroke-width:0.139357}
    .fil0 {fill:none}
    .fil1 {fill:#1F1A17}
  </style><style type="text/css">
    .fil1 {fill:black}
    .fil0 {fill:white}
  </style></defs><g style="" transform="matrix(1.0293 0 0 1.0293 -61.575 3.3832)" fill-rule="evenodd"><path style="" d="m94.881 30.177c1.9566-2.3315 3.0303-5.2831 3.0303-8.3267 0-7.1534-5.8008-12.954-12.954-12.954-7.1534 0-12.954 5.8008-12.954 12.954 0 3.0436 1.0737 5.9952 3.0303 8.3267l0.60757 0.7241-2.5553 2.1445 0.71476 0.85153 2.5553-2.1445-0.71476-0.85153-1.4482 1.2151-0.60756-0.7241c-1.8994-2.2635-3.0728-5.0369-3.387-7.9524l-1.4524 0.10163-0.07761-1.1093 1.4524-0.10163c-0.0051-0.15968-0.0077-0.3198-0.0077-0.48014 0-3.8055 1.4335-7.2761 3.7891-9.9032l-1.0488-1.0128 0.77236-0.79993 1.049 1.013c2.5435-2.444 5.9553-3.991 9.7268-4.13v-1.4571h1.1119v1.4571c3.7715 0.13899 7.1834 1.6859 9.7268 4.13l1.049-1.013 0.77236 0.79971-1.0488 1.013c2.3555 2.6271 3.7891 6.0977 3.7891 9.9032 0 0.16034-0.003 0.32046-0.008 0.48014l1.4524 0.10141-0.0776 1.1093-1.4524-0.10141c-0.31424 2.9155-1.4876 5.6889-3.387 7.9524l-0.60756 0.7241 1.1073 0.92892-0.71454 0.85197-2.5555-2.144 0.71454-0.85197 0.60756-0.7241z" fill-rule="evenodd" fill="#000000"></path><path style="" d="m80.656 24.434 1.5387 1.605 1.9303-2.1305c0.30089 0.12165 0.63336 0.17924 0.97873 0.15634 1.2227-0.08095 2.1487-1.1384 2.0676-2.3611-0.02112-0.31891-0.10897-0.61757-0.24841-0.88333l5.8997-6.5118-6.7542 5.6211c-0.36828-0.21349-0.80194-0.3238-1.2583-0.29355-1.2227 0.08095-2.1487 1.1384-2.0676 2.3611 0.01379 0.20904 0.05627 0.40964 0.1232 0.59778l-2.2099 1.8389z" fill-rule="evenodd" fill="#000000"></path><path style="" d="m50 6.875c-23.816 0-43.125 19.309-43.125 43.125s19.309 43.125 43.125 43.125 43.125-19.309 43.125-43.125-19.309-43.125-43.125-43.125zm0 6.625c20.152 0 36.5 16.348 36.5 36.5s-16.348 36.5-36.5 36.5-36.5-16.348-36.5-36.5 16.348-36.5 36.5-36.5z" transform="matrix(.50275 0 0 .50275 59.82 -3.2868)" fill-rule="evenodd" fill="#000000"></path></g></svg>