<svg xmlns="http://www.w3.org/2000/svg" xmlns:xlink="http://www.w3.org/1999/xlink" version="1.1" x="0px" y="0px" viewBox="-10.5 0.5 100 100" enable-background="new -10.5 0.5 100 100" xml:space="preserve"><path stroke="#FFFFFF" stroke-width="0.0938" d="M23.006,24.688c5.632-2.23,11.737-3.213,17.786-3.043  c6.01,0.132,11.983,1.456,17.445,3.969c5.88,2.703,11.188,6.635,15.403,11.551c5.123,5.989,8.713,13.305,10.13,21.092  c0.512,2.742,0.739,5.519,0.776,8.316c-0.209,0.547-0.19,1.154-0.397,1.7c-0.758,2.193-2.95,3.896-5.312,3.819  c-8.45-0.037-16.897,0.038-25.327-0.037c5.858-7.561,11.812-15.047,17.689-22.588c1.455-1.964,2.061-4.516,1.626-6.917  c-0.435-2.626-2.268-5.046-4.765-6.028c-3.229-1.248-7.146-0.547-9.656,1.832c-6.823,6.692-13.609,13.382-20.433,20.073  c-1.398,0.247-2.816,0.531-4.14,1.116c-4.837,2.136-8.392,7.164-8.337,12.513c-7.861,0.075-15.725,0-23.587,0.02  c-1.208-0.02-2.458,0.15-3.611-0.304c-1.511-0.566-2.776-1.831-3.344-3.347c-0.247-0.584-0.228-1.245-0.454-1.852  c0.038-5.423,0.963-10.85,2.891-15.914c2.06-5.442,5.198-10.511,9.168-14.78C11.116,30.98,16.786,27.145,23.006,24.688   M35.877,38.257c2.419-0.017,4.858-0.017,7.296,0c0.095-3.778-0.018-7.578,0.057-11.359c-2.457-0.092-4.912,0-7.371-0.035  C35.82,30.642,35.82,34.461,35.877,38.257 M17.863,34.44c-1.606,1.682-3.363,3.251-4.99,4.916c-0.038,0.245,0.264,0.359,0.378,0.528  c2.532,2.532,5.046,5.046,7.58,7.581c1.702-1.664,3.383-3.347,5.103-4.972c-0.075-0.321-0.359-0.493-0.568-0.7  c-2.417-2.437-4.857-4.857-7.276-7.295C18.034,34.479,17.921,34.44,17.863,34.44 M6.089,52.832  c-0.285,2.398-0.642,4.802-0.907,7.218c3.762,0.474,7.502,1.021,11.265,1.455c0.339-2.399,0.623-4.817,1.077-7.182  C13.708,53.832,9.889,53.304,6.089,52.832z" fill="#000000"></path><path d="M58.443,46.557c1.152-1.023,3.103-1.362,4.346-0.303c0.89,0.718,1.06,2.042,0.702,3.079  c-0.207,0.719-0.738,1.267-1.191,1.833c-5.255,6.804-10.661,13.496-15.937,20.319c0.719,3.817-2.567,7.768-6.444,7.864  c-3.855,0.34-7.409-3.101-7.352-6.938c-0.171-3.687,3.099-7.031,6.767-7.069C45.763,59.165,52.055,52.794,58.443,46.557z"></path></svg>