<svg xmlns="http://www.w3.org/2000/svg" xmlns:xlink="http://www.w3.org/1999/xlink" version="1.1" x="0px" y="0px" viewBox="0 0 100 100" enable-background="new 0 0 100 100" xml:space="preserve"><g><path d="M95,69.239c0,1.491-1.208,2.699-2.699,2.699H81.505c-1.491,0-2.699-1.208-2.699-2.699c0-1.491,1.208-2.699,2.699-2.699   h8.009c-0.601-8.893-4.15-16.984-9.683-23.313l-5.648,5.641c-0.526,0.533-1.215,0.796-1.903,0.796c-0.695,0-1.383-0.263-1.91-0.796   c-1.059-1.053-1.059-2.76,0-3.812l5.641-5.648c-6.329-5.526-14.42-9.076-23.313-9.676v8.003c0,1.491-1.208,2.699-2.699,2.699   c-1.491,0-2.699-1.208-2.699-2.699v-8.003c-8.893,0.601-16.991,4.15-23.313,9.676l23.873,23.873   c0.668-0.243,1.39-0.371,2.139-0.371c3.488,0,6.329,2.841,6.329,6.329S53.489,75.561,50,75.561c-3.489,0-6.323-2.834-6.323-6.323   c0-0.749,0.128-1.464,0.371-2.132l-23.873-23.88c-5.533,6.329-9.082,14.42-9.683,23.313h8.003c1.491,0,2.699,1.208,2.699,2.699   c0,1.491-1.208,2.699-2.699,2.699H7.699C6.215,71.938,5,70.73,5,69.239c0-12.287,4.953-23.448,12.976-31.572   c0.155-0.162,0.31-0.324,0.479-0.479C26.579,29.178,37.719,24.239,50,24.239c12.274,0,23.408,4.939,31.532,12.935   c0.007,0,0.007,0.007,0.007,0.007c0.182,0.169,0.364,0.351,0.533,0.533c0,0,0.007,0,0.007,0.007C90.067,45.845,95,56.978,95,69.239   z"></path></g></svg>